# xmcd
#
# Track frame offsets:
#	150
#	35726
#	80524
#	89808
#	110710
#	146939
#	164761
#	182285
#	257613
#	268186
#	274543
#
# Disc length: 3840 seconds
#
# Revision: 1
# Processed by: cddbd v1.5.2PL0 Copyright (c) Steve Scherf et al.
# Submitted via: audiograbber 1.83.01
#
DISCID=a60efe0b
DTITLE=Grateful Dead - 72-08-22 Berkeley Community Theatre, Berkeley CA
DYEAR=1900
DGENRE=
TTITLE0=Black Throated Wind
TTITLE1=Bird Song
TTITLE2=Tuning
TTITLE3=BIODTL
TTITLE4=Tennessee Jed
TTITLE5=Me and My Uncle
TTITLE6=Friend Of The Devil
TTITLE7=Playing In The Band
TTITLE8=Tuning and Banter
TTITLE9=He's Gone
TTITLE10=Promised Land
EXTD=
EXTT0=
EXTT1=
EXTT2=
EXTT3=
EXTT4=
EXTT5=
EXTT6=
EXTT7=
EXTT8=
EXTT9=
EXTT10=
PLAYORDER=
